<?xml version="1.0" standalone="no"?>
<!DOCTYPE svg PUBLIC "-//W3C//DTD SVG 20010904//EN"
 "http://www.w3.org/TR/2001/REC-SVG-20010904/DTD/svg10.dtd">
<svg version="1.0" xmlns="http://www.w3.org/2000/svg"
 width="324.000000pt" height="324.000000pt" viewBox="0 0 324.000000 324.000000"
 preserveAspectRatio="xMidYMid meet">
<metadata>
Created by potrace 1.14, written by Peter Selinger 2001-2017
</metadata>
<g transform="translate(0.000000,324.000000) scale(0.100000,-0.100000)"
fill="#000000" stroke="none">
<path d="M1810 3224 c-170 -45 -291 -149 -397 -344 -31 -57 -193 -345 -338
-600 -46 -80 -95 -167 -110 -195 -32 -56 -215 -381 -280 -495 -23 -41 -74
-131 -113 -200 -38 -69 -82 -145 -96 -170 -89 -150 -117 -250 -112 -390 4
-109 29 -194 83 -283 62 -102 123 -151 398 -315 360 -216 378 -223 541 -227
110 -2 215 28 306 89 104 68 148 127 286 376 41 74 171 304 182 320 5 8 18 31
28 50 11 19 167 296 347 615 377 665 399 707 419 795 45 195 -19 414 -162 556
-44 43 -494 322 -615 381 -102 50 -257 65 -367 37z m235 -194 c54 -15 542
-303 603 -355 109 -94 156 -250 118 -392 -15 -57 -24 -73 -220 -418 -133 -236
-148 -263 -226 -403 -25 -45 -49 -82 -54 -82 -5 0 -94 51 -198 113 -103 61
-201 119 -216 128 -15 9 -152 91 -306 182 -153 92 -282 167 -287 167 -5 0 -9
3 -9 8 0 4 -12 13 -27 20 -74 33 -76 21 47 239 62 109 126 223 142 253 17 30
37 65 44 77 8 12 23 39 35 60 118 214 150 264 194 308 96 98 228 132 360 95z
m-485 -1459 c261 -157 484 -290 495 -296 19 -10 106 -65 113 -71 2 -1 -49 -96
-114 -211 -123 -218 -129 -229 -201 -358 -129 -229 -177 -305 -213 -338 -106
-99 -256 -127 -388 -73 -78 32 -539 310 -580 349 -125 120 -155 303 -77 462
18 39 47 93 63 120 77 133 377 663 386 683 6 12 18 21 26 20 8 -2 229 -131
490 -287z"/>
<path d="M2455 2560 c-11 -4 -31 -20 -45 -35 -20 -22 -25 -37 -25 -81 0 -47 4
-58 32 -85 35 -35 92 -46 134 -26 33 17 69 74 69 111 -1 84 -90 147 -165 116z"/>
<path d="M1959 2412 c-70 -36 -95 -122 -52 -181 87 -117 261 -18 207 118 -25
62 -98 92 -155 63z"/>
<path d="M1507 2275 c-78 -27 -106 -96 -71 -171 29 -61 113 -85 168 -49 117
77 34 265 -97 220z"/>
<path d="M1665 1171 c-68 -30 -89 -136 -38 -193 26 -30 73 -47 111 -41 36 6
92 54 93 81 0 9 2 26 4 36 5 26 -17 76 -43 100 -24 21 -96 30 -127 17z"/>
<path d="M805 1050 c-92 -38 -97 -183 -8 -225 108 -51 217 72 153 173 -30 49
-96 73 -145 52z"/>
</g>
</svg>
