<svg width="104" height="85" viewBox="0 0 104 85" fill="none" xmlns="http://www.w3.org/2000/svg">
<g style="mix-blend-mode:darken" opacity="0.23" clip-path="url(#clip0_264_201)">
<path d="M11.2324 112.259L29.5811 122.948C34.7579 125.954 40.9119 126.778 46.6933 125.238C52.4746 123.698 57.4112 119.921 60.4201 114.735L100.952 44.6793C103.948 39.4858 104.769 33.312 103.234 27.5121C101.699 21.7123 97.934 16.76 92.7641 13.7416L74.4111 3.05454C69.2341 0.0481927 63.0799 -0.775507 57.2983 0.764114C51.5168 2.30374 46.5801 6.08097 43.5709 11.2673L3.03923 81.3229C0.0434553 86.5169 -0.776339 92.691 0.759649 98.4907C2.29564 104.29 6.06189 109.242 11.2324 112.259ZM33.3751 116.398L15.0208 105.711C11.5801 103.702 9.07409 100.407 8.05248 96.547C7.03087 92.6872 7.57718 88.5785 9.57143 85.1222L27.9436 53.3698L72.2693 79.1798L53.897 110.932C51.8951 114.384 48.6101 116.898 44.7627 117.923C40.9154 118.947 36.82 118.399 33.3751 116.398ZM70.6261 9.60197L88.9804 20.289C92.4211 22.2975 94.927 25.5933 95.9484 29.4531C96.9699 33.313 96.4233 37.4217 94.4287 40.8778L76.0575 72.6301L31.7319 46.8212L50.103 15.0678C52.1049 11.6159 55.3899 9.10156 59.2374 8.07627C63.0848 7.05098 67.1805 7.59846 70.6261 9.5986V9.60197Z" fill="black"/>
<path d="M82.8547 35.0627C83.6747 35.5401 84.6174 35.7628 85.5636 35.7028C86.5097 35.6427 87.4169 35.3025 88.1703 34.7252C88.9237 34.1479 89.4897 33.3595 89.7965 32.4596C90.1032 31.5596 90.1371 30.5887 89.8938 29.6694C89.6505 28.7502 89.141 27.924 88.4297 27.2952C87.7183 26.6665 86.8371 26.2635 85.8974 26.1372C84.9578 26.0109 84.0019 26.1669 83.1506 26.5856C82.2994 27.0043 81.591 27.6668 81.1151 28.4894C80.7989 29.0356 80.593 29.6389 80.5093 30.2649C80.4257 30.8908 80.4658 31.5272 80.6274 32.1377C80.789 32.7481 81.0688 33.3206 81.451 33.8225C81.8332 34.3244 82.3101 34.7459 82.8547 35.0627Z" fill="black"/>
<path d="M56.4578 80.6841C55.6379 80.2064 54.6952 79.9833 53.7489 80.0432C52.8027 80.103 51.8953 80.443 51.1417 81.0202C50.388 81.5973 49.8219 82.3858 49.515 83.2857C49.208 84.1856 49.174 85.1567 49.4172 86.076C49.6604 86.9954 50.1699 87.8217 50.8813 88.4506C51.5927 89.0794 52.474 89.4825 53.4137 89.6088C54.3535 89.7351 55.3094 89.5791 56.1607 89.1603C57.012 88.7416 57.7205 88.079 58.1964 87.2563C58.8343 86.1534 59.0097 84.8415 58.6836 83.609C58.3576 82.3766 57.5569 81.3244 56.4578 80.6841Z" fill="#3A4336"/>
<path d="M21.8933 85.5199C21.0733 85.0426 20.1306 84.8198 19.1844 84.8799C18.2383 84.94 17.3312 85.2802 16.5777 85.8575C15.8243 86.4348 15.2584 87.2232 14.9516 88.1231C14.6448 89.0231 14.6109 89.994 14.8542 90.9132C15.0975 91.8325 15.6071 92.6587 16.3185 93.2875C17.0298 93.9162 17.911 94.3192 18.8506 94.4455C19.7903 94.5718 20.7462 94.4158 21.5974 93.9971C22.4487 93.5784 23.157 92.9159 23.633 92.0933C24.2709 90.9901 24.4461 89.6779 24.1198 88.4453C23.7936 87.2126 22.9927 86.1604 21.8933 85.5199Z" fill="#3A4336"/>
<path d="M63.1629 40.6637C63.9829 41.141 64.9256 41.3638 65.8718 41.3037C66.8179 41.2436 67.7251 40.9035 68.4785 40.3262C69.2319 39.7489 69.7979 38.9604 70.1047 38.0605C70.4114 37.1606 70.4453 36.1896 70.202 35.2704C69.9587 34.3511 69.4491 33.5249 68.7378 32.8962C68.0264 32.2674 67.1451 31.8645 66.2055 31.7382C65.2658 31.6118 64.3101 31.7679 63.4588 32.1866C62.6076 32.6053 61.8992 33.2678 61.4233 34.0903C61.1072 34.6365 60.9014 35.2398 60.8178 35.8658C60.7342 36.4917 60.7744 37.1281 60.936 37.7385C61.0976 38.3489 61.3773 38.9214 61.7594 39.4233C62.1415 39.9252 62.6185 40.3467 63.1629 40.6637Z" fill="black"/>
<path d="M44.6716 46.1508C45.4916 46.6282 46.4343 46.851 47.3805 46.7909C48.3266 46.7308 49.2337 46.3906 49.9872 45.8134C50.7406 45.2361 51.3066 44.4476 51.6133 43.5477C51.9201 42.6478 51.954 41.6768 51.7107 40.7575C51.4674 39.8383 50.9578 39.0121 50.2464 38.3834C49.5351 37.7546 48.6538 37.3516 47.7142 37.2253C46.7745 37.099 45.8187 37.2551 44.9675 37.6738C44.1162 38.0924 43.4079 38.755 42.9319 39.5775C42.294 40.6807 42.1189 41.9929 42.4451 43.2256C42.7713 44.4582 43.5722 45.5104 44.6716 46.1508Z" fill="black"/>
</g>
<defs>
<clipPath id="clip0_264_201">
<rect width="104" height="126" fill="white"/>
</clipPath>
</defs>
</svg>
