<svg width="31" height="31" viewBox="0 0 31 31" fill="none" xmlns="http://www.w3.org/2000/svg">
<path fill-rule="evenodd" clip-rule="evenodd" d="M15.5 2.58331C10.5012 2.58331 6.45833 6.62623 6.45833 11.625C6.45833 17.0112 12.1675 24.4383 14.5183 27.2671C15.035 27.8871 15.9779 27.8871 16.4946 27.2671C18.8325 24.4383 24.5417 17.0112 24.5417 11.625C24.5417 6.62623 20.4987 2.58331 15.5 2.58331ZM15.5 14.8541C13.7175 14.8541 12.2708 13.4075 12.2708 11.625C12.2708 9.84248 13.7175 8.39581 15.5 8.39581C17.2825 8.39581 18.7292 9.84248 18.7292 11.625C18.7292 13.4075 17.2825 14.8541 15.5 14.8541Z" fill="white"/>
</svg>
