<svg width="13" height="13" viewBox="0 0 13 13" fill="none" xmlns="http://www.w3.org/2000/svg">
<path d="M11.0971 9.28419L8.89525 7.28219C8.79117 7.18759 8.65439 7.13714 8.51381 7.14149C8.37323 7.14583 8.23983 7.20464 8.14179 7.30549L6.84558 8.63853C6.53358 8.57894 5.90633 8.3834 5.26067 7.73936C4.615 7.09315 4.41946 6.46428 4.3615 6.15445L5.69346 4.85769C5.79443 4.75972 5.85332 4.62631 5.85767 4.48568C5.86202 4.34506 5.81148 4.20826 5.71675 4.10424L3.71529 1.9029C3.62052 1.79855 3.48881 1.73526 3.34812 1.72646C3.20744 1.71766 3.06887 1.76405 2.96183 1.85578L1.78642 2.86382C1.69277 2.95781 1.63687 3.0829 1.62933 3.21536C1.62121 3.35078 1.46629 6.55853 3.95363 9.04694C6.12354 11.2163 8.84162 11.375 9.59021 11.375C9.69962 11.375 9.76679 11.3718 9.78467 11.3707C9.91711 11.3633 10.0421 11.3071 10.1357 11.2131L11.1432 10.0371C11.2353 9.93042 11.282 9.79196 11.2734 9.65128C11.2648 9.51061 11.2015 9.37887 11.0971 9.28419V9.28419Z" fill="white"/>
</svg>
