<svg width="38" height="38" viewBox="0 0 38 38" fill="none" xmlns="http://www.w3.org/2000/svg">
<path fill-rule="evenodd" clip-rule="evenodd" d="M19.6263 29.5708H19.6216C17.7307 29.5701 15.8728 29.0958 14.2225 28.1956L8.23334 29.7667L9.83615 23.9122C8.84743 22.1988 8.32723 20.2552 8.32802 18.264C8.33055 12.0347 13.3988 6.96674 19.6261 6.96674C22.6485 6.96804 25.4852 8.14462 27.6182 10.2802C29.7513 12.4157 30.9254 15.2542 30.9242 18.273C30.9217 24.5008 25.8554 29.5683 19.6263 29.5708ZM14.5001 26.1503L14.843 26.3538C16.2847 27.2094 17.9374 27.6621 19.6225 27.6628H19.6263C24.802 27.6628 29.0145 23.4501 29.0166 18.2723C29.0176 15.7631 28.0418 13.4038 26.2689 11.6288C24.4959 9.85383 22.1382 8.87588 19.6299 8.87501C14.4502 8.87501 10.2377 13.0872 10.2356 18.2647C10.2349 20.039 10.7314 21.7671 11.6713 23.2621L11.8946 23.6174L10.946 27.0826L14.5001 26.1503ZM24.9315 20.7054C25.1284 20.8005 25.2614 20.8648 25.3181 20.9596C25.3887 21.0773 25.3887 21.6425 25.1535 22.302C24.9182 22.9614 23.7904 23.5632 23.248 23.6443C22.7617 23.7169 22.1462 23.7473 21.4699 23.5324C21.0599 23.4023 20.5342 23.2286 19.8606 22.9377C17.2142 21.795 15.4256 19.2299 15.0876 18.7452C15.0639 18.7112 15.0474 18.6875 15.0381 18.6751L15.0359 18.6721C14.8865 18.4728 13.8854 17.1372 13.8854 15.7548C13.8854 14.4545 14.5242 13.773 14.8182 13.4592C14.8384 13.4377 14.8569 13.4179 14.8734 13.3999C15.1322 13.1172 15.4381 13.0465 15.6262 13.0465C15.8144 13.0465 16.0028 13.0483 16.1673 13.0565C16.1876 13.0575 16.2087 13.0575 16.2305 13.0573C16.395 13.0564 16.6001 13.0552 16.8025 13.5412C16.8803 13.7282 16.9942 14.0055 17.1143 14.2979C17.3572 14.8893 17.6257 15.5427 17.6729 15.6373C17.7435 15.7786 17.7905 15.9433 17.6964 16.1318C17.6823 16.1601 17.6692 16.1868 17.6567 16.2123C17.586 16.3565 17.5341 16.4627 17.4141 16.6027C17.367 16.6578 17.3182 16.7172 17.2694 16.7766C17.1723 16.8948 17.0752 17.0131 16.9907 17.0973C16.8493 17.2381 16.7022 17.3908 16.8669 17.6734C17.0315 17.9561 17.5981 18.8805 18.4373 19.629C19.3395 20.4337 20.1235 20.7738 20.521 20.9462C20.5985 20.9798 20.6614 21.0071 20.7075 21.0302C20.9897 21.1716 21.1544 21.1479 21.3191 20.9596C21.4838 20.7711 22.0248 20.1352 22.2129 19.8527C22.4011 19.5701 22.5893 19.6172 22.8481 19.7113C23.1069 19.8056 24.4948 20.4885 24.7771 20.6298C24.8322 20.6574 24.8837 20.6823 24.9315 20.7054Z" fill="#FDFDFD"/>
</svg>
