<svg width="84" height="89" viewBox="0 0 84 89" fill="none" xmlns="http://www.w3.org/2000/svg">
<g style="mix-blend-mode:darken" opacity="0.22" clip-path="url(#clip0_264_209)">
<path d="M38.5895 76.2926L52.6746 68.2329C56.6424 65.9554 59.539 62.1972 60.7292 57.7826C61.9193 53.368 61.3057 48.6574 59.023 44.6843L28.1453 -8.91012C25.8531 -12.8779 22.0807 -15.7803 17.6556 -16.9806C13.2305 -18.1809 8.5141 -17.5811 4.54096 -15.3129L-9.54505 -7.24978C-13.5129 -4.97224 -16.4097 -1.21388 -17.5999 3.20085C-18.7901 7.61559 -18.1766 12.3262 -15.8939 16.2995L14.9838 69.8939C17.2767 73.8614 21.0497 76.7631 25.4751 77.9627C29.9004 79.1622 34.6167 78.5617 38.5895 76.2926ZM49.7895 63.2192L35.703 71.2831C33.059 72.7928 29.9202 73.192 26.9753 72.3933C24.0304 71.5946 21.5198 69.663 19.9944 67.0225L5.99968 42.7302L40.0191 23.2561L54.0137 47.5485C55.5332 50.1923 55.9418 53.3271 55.1499 56.265C54.3579 59.2028 52.4301 61.7038 49.7895 63.2192ZM-6.658 -2.2429L7.42848 -10.3068C10.0725 -11.8165 13.2113 -12.2157 16.1562 -11.4168C19.1011 -10.6179 21.6115 -8.68623 23.1367 -6.0455L37.1318 18.2462L3.11318 37.7206L-10.8827 13.4286C-12.4023 10.7846 -12.8111 7.64973 -12.0195 4.71159C-11.228 1.77346 -9.30059 -0.728056 -6.66023 -2.24419L-6.658 -2.2429Z" fill="#3A4336"/>
<path d="M14.8656 -0.607423C15.4948 -0.967703 16.0025 -1.50652 16.3242 -2.15568C16.646 -2.80484 16.7675 -3.53518 16.6733 -4.25443C16.5792 -4.97367 16.2736 -5.64951 15.7952 -6.19641C15.3168 -6.74332 14.6871 -7.13675 13.9858 -7.32698C13.2844 -7.51722 12.5429 -7.49575 11.855 -7.26519C11.1671 -7.03464 10.5636 -6.60538 10.121 -6.03174C9.67832 -5.45811 9.41632 -4.76582 9.36815 -4.04245C9.31998 -3.31907 9.48779 -2.5971 9.85033 -1.9678C10.091 -1.54984 10.4116 -1.18307 10.794 -0.888484C11.1763 -0.593903 11.6128 -0.377313 12.0786 -0.250985C12.5443 -0.124657 13.0301 -0.0910874 13.5083 -0.152258C13.9866 -0.213428 14.4478 -0.368073 14.8656 -0.607423Z" fill="#3A4336"/>
<path d="M34.9728 34.2955C34.3434 34.6556 33.8356 35.1943 33.5136 35.8434C33.1916 36.4925 33.0699 37.223 33.164 37.9423C33.258 38.6616 33.5635 39.3376 34.0418 39.8846C34.5201 40.4316 35.1498 40.8252 35.8512 41.0155C36.5526 41.2059 37.2942 41.1844 37.9822 40.9539C38.6702 40.7233 39.2737 40.2941 39.7164 39.7204C40.1591 39.1467 40.4211 38.4544 40.4692 37.731C40.5174 37.0076 40.3496 36.2855 39.9869 35.6562C39.5008 34.8125 38.6995 34.1952 37.7592 33.94C36.8189 33.6848 35.8167 33.8127 34.9728 34.2955Z" fill="#3A4336"/>
<path d="M24.966 59.0194C24.3367 59.3797 23.829 59.9185 23.5073 60.5676C23.1855 61.2168 23.064 61.9471 23.1582 62.6664C23.2524 63.3856 23.558 64.0615 24.0363 64.6084C24.5147 65.1553 25.1444 65.5487 25.8457 65.7389C26.5471 65.9292 27.2887 65.9076 27.9766 65.6771C28.6645 65.4465 29.2679 65.0173 29.7106 64.4437C30.1532 63.8701 30.4152 63.1778 30.4634 62.4544C30.5115 61.731 30.3437 61.0091 29.9812 60.3798C29.4948 59.536 28.6933 58.9187 27.7528 58.6636C26.8123 58.4085 25.8099 58.5365 24.966 59.0194Z" fill="#3A4336"/>
<path d="M11.048 14.5655C11.6773 14.2052 12.1849 13.6664 12.5067 13.0173C12.8285 12.3681 12.95 11.6378 12.8558 10.9185C12.7616 10.1993 12.456 9.52345 11.9777 8.97655C11.4993 8.42964 10.8696 8.03621 10.1682 7.84598C9.46689 7.65574 8.72535 7.67731 8.03741 7.90786C7.34948 8.13842 6.74603 8.56768 6.30339 9.14131C5.86074 9.71495 5.59879 10.4071 5.55062 11.1305C5.50245 11.8539 5.67026 12.5759 6.0328 13.2052C6.27354 13.623 6.59417 13.9898 6.9765 14.2843C7.35884 14.5788 7.79538 14.7953 8.26109 14.9216C8.72681 15.048 9.21261 15.0816 9.6908 15.0205C10.169 14.9593 10.6302 14.8048 11.048 14.5655Z" fill="#3A4336"/>
<path d="M7.61389 28.9005C8.24316 28.5402 8.7508 28.0014 9.07257 27.3522C9.39435 26.7031 9.51583 25.9727 9.42166 25.2535C9.32749 24.5342 9.02191 23.8584 8.54353 23.3115C8.06515 22.7646 7.43546 22.3712 6.73411 22.1809C6.03276 21.9907 5.29121 22.0123 4.60328 22.2428C3.91535 22.4734 3.3119 22.9026 2.86925 23.4763C2.4266 24.0499 2.16466 24.7421 2.11649 25.4655C2.06832 26.1888 2.23612 26.9108 2.59867 27.5401C3.08502 28.3839 3.88656 29.0012 4.82705 29.2563C5.76754 29.5114 6.76994 29.3834 7.61389 28.9005Z" fill="#3A4336"/>
</g>
<defs>
<clipPath id="clip0_264_209">
<rect width="79.4792" height="96.2921" fill="white" transform="translate(-40 40.831) rotate(-60)"/>
</clipPath>
</defs>
</svg>
